# Rhino

g object_1
v -2.5 -5 0
v -2.5 -5 10
v 2.5 -5 0
v 2.5 -5 10
v 2.5 -5 0
v 2.5 -5 10
v 2.5 5 0
v 2.5 5 10
v 2.5 5 0
v 2.5 5 10
v -2.5 5 0
v -2.5 5 10
v -2.5 5 0
v -2.5 5 10
v -2.5 -5 0
v -2.5 -5 10
v -2.5 -5 0
v 2.5 -5 0
v 2.5 5 0
v -2.5 5 0
v -2.5 -5 10
v 2.5 -5 10
v 2.5 5 10
v -2.5 5 10
vt 0 0
vt 0 0.749999463558197
vt 0.1666666716337204 0
vt 0.1666666716337204 0.749999463558197
vt 0.1666666716337204 0
vt 0.1666666716337204 0.749999463558197
vt 0.5 0
vt 0.5 0.749999463558197
vt 0.5 0
vt 0.5 0.749999463558197
vt 0.6666666865348816 0
vt 0.6666666865348816 0.749999463558197
vt 0.6666666865348816 0
vt 0.6666666865348816 0.749999463558197
vt 1 0
vt 1 0.749999463558197
vt 0.3333333432674408 1
vt 0.3333333432674408 0.7500001788139343
vt 0 0.7500001788139343
vt 0 1
vt 1 0.7500001788139343
vt 1 1
vt 0.6666666865348816 1
vt 0.6666666865348816 0.7500001788139343
vn 0 -1 0
vn 0 -1 0
vn 0 -1 0
vn 0 -1 0
vn 1 0 0
vn 1 0 0
vn 1 0 0
vn 1 0 0
vn 0 1 0
vn 0 1 0
vn 0 1 0
vn 0 1 0
vn -1 0 0
vn -1 0 0
vn -1 0 0
vn -1 0 0
vn 0 0 -1
vn 0 0 -1
vn 0 0 -1
vn 0 0 -1
vn 0 0 1
vn 0 0 1
vn 0 0 1
vn 0 0 1
f 1/1/1 3/3/3 4/4/4 2/2/2
f 5/5/5 7/7/7 8/8/8 6/6/6
f 9/9/9 11/11/11 12/12/12 10/10/10
f 13/13/13 15/15/15 16/16/16 14/14/14
f 18/18/18 17/17/17 20/20/20
f 20/20/20 19/19/19 18/18/18
f 22/22/22 24/24/24 21/21/21
f 24/24/24 22/22/22 23/23/23
